<svg width="239" height="48" viewBox="0 0 239 48" fill="none" xmlns="http://www.w3.org/2000/svg">
<path d="M19.32 16.816C21.208 17.168 22.76 18.112 23.976 19.648C25.192 21.184 25.8 22.944 25.8 24.928C25.8 26.72 25.352 28.304 24.456 29.68C23.592 31.024 22.328 32.08 20.664 32.848C19 33.616 17.032 34 14.76 34H0.312V0.495999H14.136C16.408 0.495999 18.36 0.863999 19.992 1.6C21.656 2.336 22.904 3.36 23.736 4.672C24.6 5.984 25.032 7.472 25.032 9.136C25.032 11.088 24.504 12.72 23.448 14.032C22.424 15.344 21.048 16.272 19.32 16.816ZM7.032 14.32H13.176C14.776 14.32 16.008 13.968 16.872 13.264C17.736 12.528 18.168 11.488 18.168 10.144C18.168 8.8 17.736 7.76 16.872 7.024C16.008 6.288 14.776 5.92 13.176 5.92H7.032V14.32ZM13.8 28.528C15.432 28.528 16.696 28.144 17.592 27.376C18.52 26.608 18.984 25.52 18.984 24.112C18.984 22.672 18.504 21.552 17.544 20.752C16.584 19.92 15.288 19.504 13.656 19.504H7.032V28.528H13.8ZM56.2598 7.408V34H49.4918V30.64C48.6278 31.792 47.4918 32.704 46.0838 33.376C44.7078 34.016 43.2038 34.336 41.5718 34.336C39.4918 34.336 37.6518 33.904 36.0518 33.04C34.4518 32.144 33.1878 30.848 32.2598 29.152C31.3638 27.424 30.9158 25.376 30.9158 23.008V7.408H37.6358V22.048C37.6358 24.16 38.1638 25.792 39.2198 26.944C40.2758 28.064 41.7158 28.624 43.5398 28.624C45.3958 28.624 46.8518 28.064 47.9078 26.944C48.9638 25.792 49.4918 24.16 49.4918 22.048V7.408H56.2598ZM69.6101 11.536C70.4741 10.128 71.5941 9.024 72.9701 8.224C74.3781 7.424 75.9781 7.024 77.7701 7.024V14.08H75.9941C73.8821 14.08 72.2821 14.576 71.1941 15.568C70.1381 16.56 69.6101 18.288 69.6101 20.752V34H62.8901V7.408H69.6101V11.536ZM171.683 12.928V25.792C171.683 26.688 171.891 27.344 172.307 27.76C172.755 28.144 173.491 28.336 174.515 28.336H177.635V34H173.411C167.747 34 164.915 31.248 164.915 25.744V12.928H161.747V7.408H164.915V0.831998H171.683V7.408H177.635V12.928H171.683ZM194.276 34.432C191.716 34.432 189.412 33.872 187.364 32.752C185.316 31.6 183.7 29.984 182.516 27.904C181.364 25.824 180.788 23.424 180.788 20.704C180.788 17.984 181.38 15.584 182.564 13.504C183.78 11.424 185.428 9.824 187.508 8.704C189.588 7.552 191.908 6.976 194.468 6.976C197.028 6.976 199.348 7.552 201.428 8.704C203.508 9.824 205.14 11.424 206.324 13.504C207.54 15.584 208.148 17.984 208.148 20.704C208.148 23.424 207.524 25.824 206.276 27.904C205.06 29.984 203.396 31.6 201.284 32.752C199.204 33.872 196.868 34.432 194.276 34.432ZM194.276 28.576C195.492 28.576 196.628 28.288 197.684 27.712C198.772 27.104 199.636 26.208 200.276 25.024C200.916 23.84 201.236 22.4 201.236 20.704C201.236 18.176 200.564 16.24 199.22 14.896C197.908 13.52 196.292 12.832 194.372 12.832C192.452 12.832 190.836 13.52 189.524 14.896C188.244 16.24 187.604 18.176 187.604 20.704C187.604 23.232 188.228 25.184 189.476 26.56C190.756 27.904 192.356 28.576 194.276 28.576ZM227.814 7.024C230.982 7.024 233.542 8.032 235.494 10.048C237.446 12.032 238.422 14.816 238.422 18.4V34H231.702V19.312C231.702 17.2 231.174 15.584 230.118 14.464C229.062 13.312 227.622 12.736 225.798 12.736C223.942 12.736 222.47 13.312 221.382 14.464C220.326 15.584 219.798 17.2 219.798 19.312V34H213.078V7.408H219.798V10.72C220.694 9.568 221.83 8.672 223.206 8.032C224.614 7.36 226.15 7.024 227.814 7.024Z" fill="black"/>
<path d="M92.7124 6.976C94.6964 6.976 96.4404 7.376 97.9444 8.176C99.4484 8.944 100.632 9.952 101.496 11.2V7.408H108.264V34.192C108.264 36.656 107.768 38.848 106.776 40.768C105.784 42.72 104.296 44.256 102.312 45.376C100.328 46.528 97.9284 47.104 95.1124 47.104C91.3364 47.104 88.2324 46.224 85.8004 44.464C83.4004 42.704 82.0404 40.304 81.7204 37.264H88.3924C88.7444 38.48 89.4964 39.44 90.6484 40.144C91.8324 40.88 93.2564 41.248 94.9204 41.248C96.8724 41.248 98.4564 40.656 99.6724 39.472C100.888 38.32 101.496 36.56 101.496 34.192V30.064C100.632 31.312 99.4324 32.352 97.8964 33.184C96.3924 34.016 94.6644 34.432 92.7124 34.432C90.4724 34.432 88.4244 33.856 86.5684 32.704C84.7124 31.552 83.2404 29.936 82.1524 27.856C81.0964 25.744 80.5684 23.328 80.5684 20.608C80.5684 17.92 81.0964 15.536 82.1524 13.456C83.2404 11.376 84.6964 9.776 86.5204 8.656C88.3764 7.536 90.4404 6.976 92.7124 6.976ZM101.496 20.704C101.496 19.072 101.176 17.68 100.536 16.528C99.8964 15.344 99.0324 14.448 97.9444 13.84C96.8564 13.2 95.6884 12.88 94.4404 12.88C93.1924 12.88 92.0404 13.184 90.9844 13.792C89.9284 14.4 89.0644 15.296 88.3924 16.48C87.7524 17.632 87.4324 19.008 87.4324 20.608C87.4324 22.208 87.7524 23.616 88.3924 24.832C89.0644 26.016 89.9284 26.928 90.9844 27.568C92.0724 28.208 93.2244 28.528 94.4404 28.528C95.6884 28.528 96.8564 28.224 97.9444 27.616C99.0324 26.976 99.8964 26.08 100.536 24.928C101.176 23.744 101.496 22.336 101.496 20.704ZM139.548 20.128C139.548 21.088 139.484 21.952 139.356 22.72H119.916C120.076 24.64 120.748 26.144 121.932 27.232C123.116 28.32 124.572 28.864 126.3 28.864C128.796 28.864 130.572 27.792 131.628 25.648H138.876C138.108 28.208 136.636 30.32 134.46 31.984C132.284 33.616 129.612 34.432 126.444 34.432C123.884 34.432 121.58 33.872 119.532 32.752C117.516 31.6 115.932 29.984 114.78 27.904C113.66 25.824 113.1 23.424 113.1 20.704C113.1 17.952 113.66 15.536 114.78 13.456C115.9 11.376 117.468 9.776 119.484 8.656C121.5 7.536 123.82 6.976 126.444 6.976C128.972 6.976 131.228 7.52 133.212 8.608C135.228 9.696 136.78 11.248 137.868 13.264C138.988 15.248 139.548 17.536 139.548 20.128ZM132.588 18.208C132.556 16.48 131.932 15.104 130.716 14.08C129.5 13.024 128.012 12.496 126.252 12.496C124.588 12.496 123.18 13.008 122.028 14.032C120.908 15.024 120.22 16.416 119.964 18.208H132.588ZM151.173 11.536C152.037 10.128 153.157 9.024 154.533 8.224C155.941 7.424 157.541 7.024 159.333 7.024V14.08H157.557C155.445 14.08 153.845 14.576 152.757 15.568C151.701 16.56 151.173 18.288 151.173 20.752V34H144.453V7.408H151.173V11.536Z" fill="#FFA600"/>
</svg>
